<svg width="160" height="160" viewBox="0 0 160 160" fill="none" xmlns="http://www.w3.org/2000/svg">
<rect width="160" height="160" fill="#0D0D0D"/>
<path d="M101.263 67.1472C101.263 67.1472 94.0201 89.9117 93.4299 91.7908C93.2153 89.858 87.9035 49 87.9035 49C75.5629 49 68.9634 57.8051 65.4758 67.0935C65.4758 67.0935 56.6765 89.9117 55.9253 91.8445C55.8716 90.0727 54.5839 67.3619 54.5839 67.3619C53.8328 55.9797 43.4238 49.0537 35 49.0537L45.1944 110.958C58.1251 110.904 65.1002 102.153 68.7488 92.8646C68.7488 92.8646 76.5287 72.7309 76.8506 71.8182C76.9043 72.6772 82.4307 110.958 82.4307 110.958C95.4151 110.958 102.39 102.744 106.146 93.7773L124.335 49.0537C111.511 49.0537 104.751 57.8051 101.263 67.1472Z" fill="white"/>
</svg>
