<svg width="160" height="160" viewBox="0 0 160 160" fill="none" xmlns="http://www.w3.org/2000/svg">
<rect width="160" height="160" fill="#0D0D0D"/>
<circle cx="80" cy="80" r="80" fill="#0C0C0C"/>
<path fill-rule="evenodd" clip-rule="evenodd" d="M121.677 69.5127L135.19 99.848C137.925 105.987 135.162 113.179 129.021 115.912C122.879 118.645 115.683 115.884 112.948 109.746L102.025 85.2231L97.2104 96.5586V69.5127H121.677Z" fill="white"/>
<path fill-rule="evenodd" clip-rule="evenodd" d="M123.142 72.8008L125.938 79.0771C124.249 78.4908 122.435 78.1721 120.546 78.1721C112.744 78.1721 106.214 83.6086 104.551 90.8935L102.025 85.2234L99.3484 91.5264V72.8008H123.142Z" fill="#2B2B2B" fill-opacity="0.3"/>
<path fill-rule="evenodd" clip-rule="evenodd" d="M82.4743 68.9801V90.4618H59.9621L57.6285 85.2231L55.4036 90.4619H30.5024V86.8168L46.1093 50.0684C48.0832 45.4206 52.6088 42.6358 57.3625 42.6524C62.0389 42.6361 66.508 45.3293 68.5322 49.8736L79.8236 75.2213L82.4743 68.9801Z" fill="white"/>
<path fill-rule="evenodd" clip-rule="evenodd" d="M79.8078 75.1846L79.8241 75.2213L90.5064 50.0684C92.4803 45.4206 97.0059 42.6358 101.76 42.6524C106.436 42.6361 110.905 45.3293 112.929 49.8736L125.927 79.0514C123.306 76.789 119.891 75.4209 116.156 75.4209C109.667 75.4209 104.143 79.5513 102.071 85.3258L102.026 85.2231L91.532 109.932C88.9051 116.117 81.7586 119.003 75.5699 116.377C74.974 116.125 74.399 115.825 73.8504 115.482C71.5808 114.249 69.6845 112.287 68.5527 109.746L57.6711 85.318C59.309 85.7869 61.0392 86.038 62.8278 86.038C70.3545 86.038 76.8426 81.5924 79.8077 75.1846H79.8078Z" fill="#E9E9E9"/>
<path fill-rule="evenodd" clip-rule="evenodd" d="M57.5609 85.382L49.7248 103.833C47.8137 104.71 45.6842 105.198 43.4392 105.198C35.5641 105.198 29.11 99.1897 28.5215 91.4815L33.8991 78.819C36.4887 76.676 39.8133 75.3877 43.4392 75.3877C49.9657 75.3877 55.5162 79.5613 57.5609 85.382Z" fill="#C7C7C7"/>
<path fill-rule="evenodd" clip-rule="evenodd" d="M55.2613 90.7972L47.1351 109.931C44.5083 116.117 37.3617 119.003 31.1731 116.377C24.9844 113.751 22.0972 106.609 24.724 100.423L33.7473 79.1767C35.6574 78.3316 37.77 77.8623 39.9918 77.8623C47.6625 77.8623 54.0305 83.4557 55.2613 90.7973V90.7972Z" fill="#DEDEDE"/>
</svg>
