<svg width="160" height="160" viewBox="0 0 160 160" fill="none" xmlns="http://www.w3.org/2000/svg">
<rect width="160" height="160" fill="#0D0D0D"/>
<circle cx="80" cy="80" r="80" fill="#0C0C0C"/>
<path d="M120.512 72.9074H96.1034L113.298 55.7125C112.032 53.7302 110.651 52.4065 109.327 50.4242C107.427 49.0485 105.656 47.5009 104.039 45.8009L86.7935 62.9768V39.1002C84.6343 38.5544 82.406 38.3324 80.1815 38.4416C77.9563 38.2993 75.7229 38.5218 73.5695 39.1002V63.5721L55.7096 45.7122C53.6576 46.8899 51.86 48.4636 50.4213 50.3419C49.1546 52.3242 47.1153 53.6479 45.798 55.6302L62.9929 72.8251H39.1037L38.445 79.4371C38.2958 81.6833 38.5183 83.9387 39.1037 86.1124H63.5756L45.7156 103.972C48.3313 107.899 51.7006 111.281 55.6336 113.89L72.8285 96.6954V121.167C74.9877 121.713 77.2161 121.935 79.4405 121.826C81.6657 121.968 83.8991 121.746 86.0525 121.167V96.6954L103.247 113.89C105.299 112.713 107.097 111.139 108.536 109.261C110.241 107.648 111.789 105.878 113.159 103.972L96.1034 86.7901H120.575C121.121 84.6309 121.343 82.4025 121.234 80.1781C121.373 77.7311 121.151 75.277 120.575 72.8948L120.512 72.9074ZM90.0868 79.5194C90.0252 82.4324 89.5779 85.3245 88.7568 88.12C86.0335 89.1967 83.0885 89.64 80.1562 89.3867C77.2432 89.3251 74.3511 88.8778 71.5555 88.0567C70.4789 85.3334 70.0356 82.3884 70.2889 79.4561C70.3506 76.5431 70.7978 73.651 71.6189 70.8555C74.3422 69.7788 77.2872 69.3355 80.2195 69.5888C83.1325 69.6504 86.0245 70.0977 88.8201 70.9188C89.5833 73.7268 90.0273 76.6119 90.1438 79.5194H90.0868Z" fill="white"/>
</svg>
